<?xml version="1.0" encoding="UTF-8"?>
<svg width="752pt" height="752pt" version="1.1" viewBox="0 0 752 752" xmlns="http://www.w3.org/2000/svg">
 <g>
  <rect width="752" height="752" fill="#1b3661"/>
  <path d="m563.79 394.43c-14.207-0.46094-26.062 11.055-26.344 25.328-0.72266 36.609-31.125 66.398-67.781 66.398-30.926 0-57.949-20.988-65.711-51.016-1.2773-4.9961-1.9766-10.145-2.0664-15.305-0.003906-0.38672-0.03125-0.77734-0.0625-1.1641 0-0.11328 0.007813-0.22656 0.007813-0.34766v-0.003907c0-4.668 1.3359-9.2461 3.8516-13.18l48.57-76.035c10.48-16.406-1.3008-37.914-20.77-37.914h-114.97c-19.469 0-31.25 21.512-20.77 37.914l48.574 76.035c2.5156 3.9336 3.8516 8.5117 3.8516 13.184v0.13672c-0.03125 0.46484-0.050781 0.92969-0.0625 1.3906-0.074218 5.125-0.77344 10.273-2.0469 15.25-7.7656 30.059-34.789 51.047-65.723 51.047-36.645 0-67.055-29.789-67.77-66.402-0.28516-14.273-12.012-25.508-26.344-25.328-14.266 0.28125-25.605 12.078-25.324 26.34 1.2695 64.551 54.852 117.07 119.44 117.07 37.371 0 71.492-17.371 93.66-45.359 22.164 27.98 56.289 45.359 93.668 45.359 64.59 0 118.18-52.516 119.45-117.07 0.28516-14.258-11.055-26.051-25.32-26.328z" fill="#fff"/>
  <path d="m172.51 243.24v45.219c0 15.988 13.082 29.07 29.07 29.07s29.07-13.082 29.07-29.07v-45.219c0-15.988-13.082-29.07-29.07-29.07s-29.07 13.082-29.07 29.07z" fill="#fff"/>
  <path d="m550.42 317.52c15.988 0 29.07-13.082 29.07-29.07v-45.219c0-15.988-13.082-29.07-29.07-29.07s-29.07 13.082-29.07 29.07v45.219c0 15.988 13.082 29.07 29.07 29.07z" fill="#fff"/>
 </g>
</svg>
